<svg width="34" height="34" viewBox="0 0 34 34" fill="none" xmlns="http://www.w3.org/2000/svg">
<path d="M25.3333 22.8334V25.3334C25.3333 26.3334 24.6666 27 23.6666 27C22.6666 27 21.9999 26.3334 21.9999 25.3334V22.8334H11.9999V25.3334C11.9999 26.3334 11.3333 27 10.3333 27C9.33325 27 8.66659 26.3334 8.66659 25.3334V22.8334H5.33325C4.16659 22.8334 2.99992 22.5 1.99992 22L1.99992 28.6667C1.99992 31.5 4.16659 33.6667 6.99992 33.6667H26.9999C29.8333 33.6667 31.9999 31.5 31.9999 28.6667V22C30.9999 22.5 29.8333 22.8334 28.6666 22.8334H25.3333ZM31.9999 7.00004H25.3333V5.33337C25.3333 2.50004 23.1666 0.333374 20.3333 0.333374L13.6666 0.333374C10.8333 0.333374 8.66659 2.50004 8.66659 5.33337V7.00004H1.99992C0.999919 7.00004 0.333252 7.66671 0.333252 8.66671L0.333252 15.3334C0.333252 18.1667 2.49992 20.3334 5.33325 20.3334H28.6666C31.4999 20.3334 33.6666 18.1667 33.6666 15.3334V8.66671C33.6666 7.66671 32.9999 7.00004 31.9999 7.00004ZM21.9999 7.00004L11.9999 7.00004V5.33337C11.9999 4.33337 12.6666 3.66671 13.6666 3.66671H20.3333C21.3333 3.66671 21.9999 4.33337 21.9999 5.33337V7.00004Z" fill="#0D0E14"/>
</svg>
