<svg width="34" height="34" viewBox="0 0 34 34" fill="none" xmlns="http://www.w3.org/2000/svg">
<path d="M0.333252 28.6667C0.333252 31.5 2.49992 33.6667 5.33325 33.6667H28.6666C31.4999 33.6667 33.6666 31.5 33.6666 28.6667V15.3334L0.333252 15.3334L0.333252 28.6667ZM28.6666 3.66671H25.3333V2.00004C25.3333 1.00004 24.6666 0.333374 23.6666 0.333374C22.6666 0.333374 21.9999 1.00004 21.9999 2.00004V3.66671H11.9999V2.00004C11.9999 1.00004 11.3333 0.333374 10.3333 0.333374C9.33325 0.333374 8.66659 1.00004 8.66659 2.00004V3.66671L5.33325 3.66671C2.49992 3.66671 0.333252 5.83337 0.333252 8.66671L0.333252 12L33.6666 12V8.66671C33.6666 5.83337 31.4999 3.66671 28.6666 3.66671Z" fill="#0D0E14"/>
</svg>
