<svg width="36" height="34" viewBox="0 0 36 34" fill="none" xmlns="http://www.w3.org/2000/svg">
<path d="M35.1667 31C33.1667 28.6667 32.1667 25.8334 32.1667 22.8334V10.3334C32.1667 4.83337 28.5 0.333374 23.8333 0.333374L8.83333 0.333374C4.16667 0.333374 0.5 4.83337 0.5 10.3334C0.5 15.8334 4.16667 20.3334 8.83333 20.3334H13.8333V22.8334C13.8333 26.6667 15.1667 30.3334 17.5 33.1667C17.8333 33.5 18.3333 33.6667 18.8333 33.6667H33.8333C34.8333 33.6667 35.5 33 35.5 32C35.5 31.6667 35.3333 31.1667 35.1667 31ZM8.83333 12.3334C7.83333 12.3334 7 11.3334 7.16667 10.3334C7 9.33337 7.83333 8.33337 8.83333 8.33337C9.83333 8.50004 10.6667 9.33337 10.5 10.3334C10.6667 11.3334 9.83333 12.3334 8.83333 12.3334ZM19.6667 30.3334C18 28.1667 17.1667 25.5 17.1667 22.6667V11V10.8334C17.1667 10.6667 17.1667 10.3334 17.1667 10.1667C17.1667 7.83337 16.5 5.50004 15 3.50004H23.8333C26.6667 3.50004 28.8333 6.50004 28.8333 10.1667V22.6667C28.8333 25.3334 29.5 28 30.6667 30.3334H19.6667Z" fill="#0D0E14"/>
</svg>
